<svg width="16" height="21" viewBox="0 0 16 21" fill="none" xmlns="http://www.w3.org/2000/svg">
<path d="M3.43317 21C2.90978 20.9969 2.39295 20.8833 1.9165 20.6667C1.40121 20.4395 0.962193 20.0689 0.651875 19.599C0.341557 19.1291 0.173059 18.5798 0.166504 18.0167V3.98333C0.173059 3.42024 0.341557 2.87094 0.651875 2.40103C0.962193 1.93112 1.40121 1.56047 1.9165 1.33333C2.50941 1.05328 3.16906 0.945415 3.82028 1.02203C4.47151 1.09864 5.08812 1.35666 5.59984 1.76667L14.0998 8.78333C14.4332 9.04869 14.7023 9.38581 14.8874 9.7696C15.0724 10.1534 15.1685 10.5739 15.1685 11C15.1685 11.4261 15.0724 11.8466 14.8874 12.2304C14.7023 12.6142 14.4332 12.9513 14.0998 13.2167L5.59984 20.2333C4.98714 20.7302 4.22202 21.0009 3.43317 21Z" fill="#24AB70"/>
</svg>
